HIERARCHY
ROOT Hips
{
	OFFSET -0.001795 -0.223333 0.028219
	CHANNELS 6 Xposition Yposition Zposition Zrotation Yrotation Xrotation 
	JOINT LeftUpLeg
	{
		OFFSET 0.069520 -0.091406 -0.006815
		CHANNELS 3 Zrotation Yrotation Xrotation
		JOINT LeftLeg
		{
			OFFSET 0.034277 -0.375199 -0.004496
			CHANNELS 3 Zrotation Yrotation Xrotation
			JOINT LeftFoot
			{
				OFFSET -0.013596 -0.397961 -0.043693
				CHANNELS 3 Zrotation Yrotation Xrotation
				JOINT LeftToe
				{
					OFFSET 0.026358 -0.055791 0.119288
					CHANNELS 3 Zrotation Yrotation Xrotation
					End Site
					{
						OFFSET 0.000000 0.000000 0.000000
					}
				}
			}
		}
	}
	JOINT RightUpLeg
	{
		OFFSET -0.067670 -0.090522 -0.004320
		CHANNELS 3 Zrotation Yrotation Xrotation
		JOINT RightLeg
		{
			OFFSET -0.038290 -0.382569 -0.008850
			CHANNELS 3 Zrotation Yrotation Xrotation
			JOINT RightFoot
			{
				OFFSET 0.015774 -0.398415 -0.042312
				CHANNELS 3 Zrotation Yrotation Xrotation
				JOINT RightToe
				{
					OFFSET -0.025372 -0.048144 0.123348
					CHANNELS 3 Zrotation Yrotation Xrotation
					End Site
					{
						OFFSET 0.000000 0.000000 0.000000
					}
				}
			}
		}
	}
	JOINT Spine
	{
		OFFSET -0.002533 0.108963 -0.026696
		CHANNELS 3 Zrotation Yrotation Xrotation
		JOINT Spine1
		{
			OFFSET 0.005487 0.135180 0.001092
			CHANNELS 3 Zrotation Yrotation Xrotation
			JOINT Spine2
			{
				OFFSET 0.001457 0.052922 0.025425
				CHANNELS 3 Zrotation Yrotation Xrotation
				JOINT Neck
				{
					OFFSET -0.002778 0.213870 -0.042857
					CHANNELS 3 Zrotation Yrotation Xrotation
					JOINT Head
					{
						OFFSET 0.005152 0.064970 0.051349
						CHANNELS 3 Zrotation Yrotation Xrotation
						End Site
						{
							OFFSET 0.000000 0.000000 0.000000
						}
					}
				}
				JOINT LeftShoulder
				{
					OFFSET 0.078845 0.121749 -0.034090
					CHANNELS 3 Zrotation Yrotation Xrotation
					JOINT LeftArm
					{
						OFFSET 0.090977 0.030469 -0.008868
						CHANNELS 3 Zrotation Yrotation Xrotation
						JOINT LeftForeArm
						{
							OFFSET 0.259612 -0.012772 -0.027456
							CHANNELS 3 Zrotation Yrotation Xrotation
							JOINT LeftHand
							{
								OFFSET 0.249234 0.008986 -0.001171
								CHANNELS 3 Zrotation Yrotation Xrotation
								End Site
								{
									OFFSET 0.000000 0.000000 0.000000
								}
							}
						}
					}
				}
				JOINT RightShoulder
				{
					OFFSET -0.081759 0.118833 -0.038615
					CHANNELS 3 Zrotation Yrotation Xrotation
					JOINT RightArm
					{
						OFFSET -0.096012 0.032551 -0.009143
						CHANNELS 3 Zrotation Yrotation Xrotation
						JOINT RightForeArm
						{
							OFFSET -0.253742 -0.013329 -0.021401
							CHANNELS 3 Zrotation Yrotation Xrotation
							JOINT RightHand
							{
								OFFSET -0.255298 0.007772 -0.005559
								CHANNELS 3 Zrotation Yrotation Xrotation
								End Site
								{
									OFFSET 0.000000 0.000000 0.000000
								}
							}
						}
					}
				}
			}
		}
	}
}
MOTION
Frames: 16
Frame Time: 0.050000
0.000000 0.957023 0.000000 2.258568 -5.221804 3.699829 1.199624 -0.130691 -1.346206 -1.182244 0.174496 -1.502819 -1.305562 2.834268 15.364416 0.000000 0.000000 0.000000 -3.976039 0.132375 0.741534 2.783392 -0.298972 -2.989060 -3.020886 -12.129815 16.006866 0.000000 0.000000 0.000000 7.415056 -0.551447 3.999239 -6.260482 2.020372 -24.840433 0.436200 13.122789 26.087226 11.834529 -2.828499 -30.318969 0.000000 0.000000 0.000000 4.074981 -5.980341 2.293723 -19.706363 -17.544062 -1.051833 103.855675 -64.562533 -78.916965 0.000000 0.000000 0.000000 -1.349602 -0.795499 -0.415783 7.277659 25.549565 -0.948304 -21.965512 6.622465 -0.160458 0.000000 0.000000 0.000000 
-0.000181 0.956590 -0.000341 1.651525 -4.424661 3.731468 1.667609 -0.058746 -0.423687 -0.440892 0.119358 -2.298178 -2.044492 1.044428 13.118651 0.000000 0.000000 0.000000 -2.874203 0.037956 1.178550 1.611485 -0.237328 -3.460366 -2.337259 -10.916679 16.154055 0.000000 0.000000 0.000000 8.624850 -0.671218 4.469616 -7.118660 2.221292 -25.155609 0.387253 12.650134 25.724358 11.142260 -2.561191 -29.625968 0.000000 0.000000 0.000000 3.633475 -6.889987 2.526817 -16.751090 -19.950161 -0.883432 97.966761 -61.854157 -70.430104 0.000000 0.000000 0.000000 0.365539 -1.433372 -0.542555 6.934115 26.433322 -0.983735 -21.958836 4.503789 0.176968 0.000000 0.000000 0.000000 
-0.000782 0.957063 -0.001285 2.052530 -5.763614 3.400090 1.072725 0.005696 0.229562 -0.360410 0.125035 -2.710781 -1.497402 1.898491 13.557142 0.000000 0.000000 0.000000 -3.940138 0.140256 0.623659 2.433244 -0.279001 -3.365297 -1.955598 -10.969611 18.276340 0.000000 0.000000 0.000000 8.256161 -0.667367 4.784051 -5.953463 1.917038 -26.427963 -0.029214 14.900299 27.833997 13.109590 -3.032945 -32.036372 0.000000 0.000000 0.000000 5.950614 -7.104536 2.810561 -15.942250 -25.224256 -0.808390 87.601933 -54.258767 -54.520781 0.000000 0.000000 0.000000 1.846327 -0.807958 -0.199654 9.224934 27.589500 -0.822585 -29.360498 3.989213 0.516287 0.000000 0.000000 0.000000 
-0.001761 0.956935 -0.002653 2.289700 -3.450001 3.545553 1.495613 -0.025004 -0.013333 -0.966017 0.193191 -3.213608 -2.729659 0.262533 13.699456 0.000000 0.000000 0.000000 -3.596945 0.102466 0.644539 2.364068 -0.284413 -3.117571 -3.747767 -13.457172 18.034569 0.000000 0.000000 0.000000 7.906042 -0.560214 3.809214 -6.056798 1.976779 -25.544431 -0.594421 12.041498 27.988358 12.453049 -2.948305 -31.981015 0.000000 0.000000 0.000000 6.398495 -8.544850 3.162557 -13.297597 -28.375460 -0.957265 82.372791 -46.051711 -42.439119 0.000000 0.000000 0.000000 3.711020 0.437496 0.420388 9.652398 30.426377 -0.756531 -33.171974 2.357172 0.915390 0.000000 0.000000 0.000000 
-0.003070 0.957038 -0.004491 2.396850 -3.209505 3.445745 1.132941 -0.098437 -0.949501 -0.337285 0.089038 -1.649571 -2.712552 0.228395 13.443551 0.000000 0.000000 0.000000 -3.763689 0.100992 0.740854 2.410560 -0.286991 -2.991064 -3.295956 -12.611122 17.513386 0.000000 0.000000 0.000000 7.015357 -0.535574 4.029090 -5.153176 1.771203 -25.750838 -0.381369 11.499547 27.567836 11.497697 -2.720780 -30.627986 0.000000 0.000000 0.000000 7.380048 -10.927357 3.804794 -9.977576 -32.475700 -1.395624 76.889678 -35.482596 -30.157145 0.000000 0.000000 0.000000 4.771365 1.254866 0.826896 13.526270 32.351720 -0.112915 -40.499301 7.696590 -0.488841 0.000000 0.000000 0.000000 
-0.004351 0.957029 -0.006595 2.385330 -2.441960 3.925729 0.906564 -0.168235 -1.766892 0.375387 0.014156 -1.529672 -3.030681 -0.181945 13.455450 0.000000 0.000000 0.000000 -3.530857 0.121295 0.232131 2.370082 -0.291644 -3.191990 -3.781691 -13.365412 17.985162 0.000000 0.000000 0.000000 6.349382 -0.475553 3.618426 -4.879280 1.709379 -26.070223 -0.234583 9.948251 27.546146 10.937175 -2.603146 -30.544689 0.000000 0.000000 0.000000 9.371445 -12.762885 4.198347 -6.970625 -35.344699 -1.976856 73.721357 -25.576157 -20.828534 0.000000 0.000000 0.000000 6.013609 3.009180 1.609058 18.262148 36.105293 1.087569 -47.308713 11.494622 -2.014759 0.000000 0.000000 0.000000 
-0.005242 0.957113 -0.008811 2.257000 -2.240421 3.762209 0.896779 -0.237595 -2.593188 0.777778 -0.085482 -0.046711 -3.005639 -0.212792 13.192072 0.000000 0.000000 0.000000 -3.350191 0.101181 0.373881 2.331403 -0.285708 -2.935852 -3.461370 -12.686415 17.165588 0.000000 0.000000 0.000000 5.889969 -0.468498 3.828231 -3.924034 1.504720 -25.548402 -0.081055 9.866882 26.988507 10.058724 -2.282030 -29.424984 0.000000 0.000000 0.000000 10.149652 -14.571812 4.611393 -1.249586 -37.704608 -3.351337 72.618860 -19.193590 -15.992465 0.000000 0.000000 0.000000 8.132103 4.497457 2.461579 23.340276 38.097235 2.475901 -55.430355 19.105400 -5.822598 0.000000 0.000000 0.000000 
-0.005320 0.957111 -0.010999 1.999153 -2.162299 3.670055 0.900443 -0.258372 -2.845374 1.293088 -0.159885 0.334084 -2.972668 -0.203027 13.044909 0.000000 0.000000 0.000000 -3.041879 0.122585 -0.128745 2.447053 -0.284330 -2.326707 -3.852757 -13.396705 17.657306 0.000000 0.000000 0.000000 5.372334 -0.491698 4.427705 -3.119104 1.323848 -25.582710 0.404821 9.169685 27.215598 9.930276 -2.274339 -29.757703 0.000000 0.000000 0.000000 11.857485 -15.051484 4.594640 3.445301 -39.575119 -4.690405 73.752329 -13.684100 -12.273568 0.000000 0.000000 0.000000 9.432954 5.844652 3.132602 29.934318 40.901826 4.766841 -61.631448 29.044605 -11.999330 0.000000 0.000000 0.000000 
-0.004530 0.957388 -0.012881 1.934038 -2.254319 4.095259 0.844516 -0.342525 -3.827199 1.414921 -0.205800 1.039258 -2.872146 -0.050911 13.048522 0.000000 0.000000 0.000000 -2.744497 0.159850 -0.738214 2.050679 -0.251271 -2.267406 -3.983375 -13.618517 17.626427 0.000000 0.000000 0.000000 5.191428 -0.489694 4.437642 -2.831065 1.254771 -25.202821 0.882438 9.116835 26.996948 8.569810 -1.551504 -29.666303 0.000000 0.000000 0.000000 13.596172 -15.360261 4.572646 9.561307 -41.128692 -6.636888 76.188543 -10.707566 -10.689424 0.000000 0.000000 0.000000 10.947278 7.047434 3.836821 37.751504 41.341908 7.171687 -68.515117 42.352103 -22.163665 0.000000 0.000000 0.000000 
-0.002853 0.957562 -0.014309 1.996139 -2.341144 4.485008 0.716685 -0.376825 -4.198448 1.325712 -0.183360 0.779874 -2.849985 0.021700 13.178846 0.000000 0.000000 0.000000 -2.738242 0.190747 -1.118857 1.912314 -0.238355 -2.202290 -4.110511 -13.723737 16.860423 0.000000 0.000000 0.000000 4.394284 -0.457129 4.559905 -1.707153 0.999757 -25.390069 1.301288 8.642216 27.180418 7.798934 -1.195334 -29.812998 0.000000 0.000000 0.000000 16.870597 -14.980150 4.268596 13.883516 -42.330300 -8.162247 78.846123 -8.005331 -9.049141 0.000000 0.000000 0.000000 11.019000 7.628174 4.045383 45.850237 43.081287 10.571617 -74.504279 52.496668 -32.212455 0.000000 0.000000 0.000000 
-0.000252 0.957730 -0.014785 2.015287 -3.190452 4.937379 0.261479 -0.433742 -4.735426 1.647516 -0.231593 0.959220 -2.390157 0.667097 13.208519 0.000000 0.000000 0.000000 -2.847670 0.245974 -1.731183 1.641054 -0.209528 -2.037166 -3.697361 -13.063865 16.278964 0.000000 0.000000 0.000000 4.235709 -0.440851 4.411245 -1.264901 0.890614 -25.357723 1.591089 8.400304 26.903324 6.897771 -0.863258 -29.477953 0.000000 0.000000 0.000000 20.233206 -15.026514 3.961148 17.304367 -42.429298 -9.092798 80.333167 -7.424056 -8.634603 0.000000 0.000000 0.000000 10.567235 8.979590 4.495615 52.910373 43.901129 13.668789 -83.784935 61.567544 -46.055773 0.000000 0.000000 0.000000 
0.002995 0.957986 -0.014617 2.183435 -3.279678 5.173612 -0.229251 -0.457575 -4.871683 1.798335 -0.239245 0.736921 -2.364524 0.726691 13.294933 0.000000 0.000000 0.000000 -3.155450 0.281710 -2.085851 1.424669 -0.186164 -1.809482 -3.584084 -12.869183 16.162169 0.000000 0.000000 0.000000 4.018636 -0.427802 4.385673 -0.741548 0.778058 -25.585343 1.525778 7.620324 27.133348 6.283856 -0.655365 -29.614267 0.000000 0.000000 0.000000 23.354017 -15.091463 3.579257 19.650043 -42.556259 -9.684057 81.625818 -8.384312 -9.381743 0.000000 0.000000 0.000000 10.406640 9.524069 4.618489 58.575426 46.312185 17.377445 -91.956211 66.556979 -57.451614 0.000000 0.000000 0.000000 
0.006411 0.958385 -0.013969 1.992915 -3.583863 5.251116 -0.402846 -0.446671 -4.710926 2.019339 -0.251553 0.440203 -2.210882 0.935971 13.297752 0.000000 0.000000 0.000000 -3.144420 0.289217 -2.167571 1.239935 -0.168988 -1.756199 -3.258820 -12.384028 16.242086 0.000000 0.000000 0.000000 4.240884 -0.455009 4.556378 -0.252004 0.654785 -25.298274 1.547181 7.042619 26.679857 5.665962 -0.432793 -29.670922 0.000000 0.000000 0.000000 25.808279 -15.283842 3.268776 21.131386 -42.769140 -10.027840 83.140534 -9.370729 -10.159910 0.000000 0.000000 0.000000 10.022092 10.572927 4.932214 62.153819 48.095434 20.196017 -100.881221 68.410204 -67.643041 0.000000 0.000000 0.000000 
0.009634 0.958463 -0.012970 1.910450 -3.982215 5.313416 -0.684189 -0.453600 -4.712809 2.221801 -0.279737 0.504346 -1.978944 1.223000 13.193573 0.000000 0.000000 0.000000 -3.493008 0.288394 -1.978090 1.504608 -0.193225 -1.927863 -2.831307 -11.621047 15.755822 0.000000 0.000000 0.000000 4.489098 -0.481912 4.703481 0.075878 0.580083 -25.414154 1.401318 6.644981 26.751909 5.363538 -0.389679 -29.543472 0.000000 0.000000 0.000000 27.764505 -15.549669 2.971606 21.741941 -42.902497 -10.093302 84.243222 -10.389568 -10.964196 0.000000 0.000000 0.000000 10.062179 10.654947 4.886147 66.078672 49.339485 22.931246 -109.836510 69.163769 -77.171005 0.000000 0.000000 0.000000 
0.012597 0.958458 -0.011689 1.867872 -4.159475 5.340809 -0.907579 -0.427730 -4.395315 2.314957 -0.267954 0.059286 -1.898246 1.315848 13.151838 0.000000 0.000000 0.000000 -3.767299 0.296460 -1.957673 1.678534 -0.209131 -2.056642 -2.765675 -11.610390 16.120564 0.000000 0.000000 0.000000 4.438205 -0.490426 4.863877 0.469069 0.491816 -25.399471 1.223387 5.682011 26.467244 4.953818 -0.333974 -29.623805 0.000000 0.000000 0.000000 28.878331 -16.064846 2.686309 21.523268 -43.553320 -9.969623 85.547526 -11.404297 -11.588401 0.000000 0.000000 0.000000 9.779707 10.909023 4.810705 67.435774 49.991069 23.975892 -115.904868 68.708856 -83.387433 0.000000 0.000000 0.000000 
0.015139 0.958018 -0.010127 1.869650 -4.668238 5.554378 -0.929464 -0.416415 -4.265851 1.960534 -0.209845 -0.326454 -1.645872 1.623896 13.050537 0.000000 0.000000 0.000000 -4.062699 0.331055 -2.277956 1.674640 -0.203256 -1.906937 -2.405139 -11.065519 16.061464 0.000000 0.000000 0.000000 4.306757 -0.455520 4.489642 0.692131 0.429083 -25.213796 1.109923 4.908163 26.604228 4.783877 -0.486464 -29.054833 0.000000 0.000000 0.000000 29.308817 -16.786037 2.428947 21.536948 -44.008651 -9.839798 86.286201 -12.244841 -12.005947 0.000000 0.000000 0.000000 10.124376 10.883511 4.671495 67.925377 49.948101 23.948277 -124.374931 68.376726 -92.656645 0.000000 0.000000 0.000000 
